<svg width="24" height="23" viewBox="0 0 24 23" fill="none" xmlns="http://www.w3.org/2000/svg">
<path d="M14 9.50146V7.99142C14.55 7.78416 15.1125 7.62872 15.6875 7.52509C16.2625 7.42146 16.8667 7.36964 17.5 7.36964C17.9333 7.36964 18.3583 7.39925 18.775 7.45847C19.1917 7.51768 19.6 7.59171 20 7.68053V9.10174C19.6 8.9685 19.1958 8.86857 18.7875 8.80196C18.3792 8.73534 17.95 8.70203 17.5 8.70203C16.8667 8.70203 16.2583 8.77235 15.675 8.91299C15.0917 9.05363 14.5333 9.24978 14 9.50146ZM14 14.3869V12.8768C14.55 12.6696 15.1125 12.5141 15.6875 12.4105C16.2625 12.3069 16.8667 12.2551 17.5 12.2551C17.9333 12.2551 18.3583 12.2847 18.775 12.3439C19.1917 12.4031 19.6 12.4771 20 12.5659V13.9872C19.6 13.8539 19.1958 13.754 18.7875 13.6874C18.3792 13.6207 17.95 13.5874 17.5 13.5874C16.8667 13.5874 16.2583 13.6541 15.675 13.7873C15.0917 13.9205 14.5333 14.1204 14 14.3869ZM14 11.9442V10.4341C14.55 10.2269 15.1125 10.0714 15.6875 9.96779C16.2625 9.86416 16.8667 9.81235 17.5 9.81235C17.9333 9.81235 18.3583 9.84196 18.775 9.90117C19.1917 9.96039 19.6 10.0344 20 10.1232V11.5444C19.6 11.4112 19.1958 11.3113 18.7875 11.2447C18.3792 11.178 17.95 11.1447 17.5 11.1447C16.8667 11.1447 16.2583 11.2151 15.675 11.3557C15.0917 11.4963 14.5333 11.6925 14 11.9442ZM13 15.8525C13.7333 15.5416 14.4708 15.3084 15.2125 15.153C15.9542 14.9975 16.7167 14.9198 17.5 14.9198C18.1 14.9198 18.6875 14.9642 19.2625 15.0531C19.8375 15.1419 20.4167 15.2751 21 15.4528V6.65904C20.45 6.45178 19.8792 6.29633 19.2875 6.1927C18.6958 6.08907 18.1 6.03726 17.5 6.03726C16.7167 6.03726 15.9417 6.12608 15.175 6.30373C14.4083 6.48138 13.6833 6.74786 13 7.10316V15.8525ZM12 18.4729C11.2 17.9103 10.3333 17.4736 9.4 17.1627C8.46667 16.8518 7.5 16.6963 6.5 16.6963C5.8 16.6963 5.1125 16.7778 4.4375 16.9406C3.7625 17.1035 3.11667 17.3329 2.5 17.629C2.15 17.7919 1.8125 17.7845 1.4875 17.6068C1.1625 17.4291 1 17.1701 1 16.8296V6.12608C1 5.96323 1.04583 5.80779 1.1375 5.65975C1.22917 5.5117 1.36667 5.40067 1.55 5.32665C2.33333 4.98615 3.1375 4.72338 3.9625 4.53832C4.7875 4.35327 5.63333 4.26074 6.5 4.26074C7.46667 4.26074 8.4125 4.37177 9.3375 4.59384C10.2625 4.8159 11.15 5.149 12 5.59313C12.85 5.149 13.7375 4.8159 14.6625 4.59384C15.5875 4.37177 16.5333 4.26074 17.5 4.26074C18.3667 4.26074 19.2125 4.35327 20.0375 4.53832C20.8625 4.72338 21.6667 4.98615 22.45 5.32665C22.6333 5.40067 22.7708 5.5117 22.8625 5.65975C22.9542 5.80779 23 5.96323 23 6.12608V16.8296C23 17.1701 22.8375 17.4291 22.5125 17.6068C22.1875 17.7845 21.85 17.7919 21.5 17.629C20.8833 17.3329 20.2375 17.1035 19.5625 16.9406C18.8875 16.7778 18.2 16.6963 17.5 16.6963C16.5 16.6963 15.5333 16.8518 14.6 17.1627C13.6667 17.4736 12.8 17.9103 12 18.4729Z" fill="url(#paint0_linear_50_613)"/>
<defs>
<linearGradient id="paint0_linear_50_613" x1="12" y1="4.26074" x2="12" y2="18.4729" gradientUnits="userSpaceOnUse">
<stop stop-color="#EFF249"/>
<stop offset="1" stop-color="#D1D41E"/>
<stop offset="1" stop-color="#C7CB0A"/>
</linearGradient>
</defs>
</svg>
