<svg width="24" height="22" viewBox="0 0 24 22" fill="none" xmlns="http://www.w3.org/2000/svg">
<path d="M12 19.6562C10.6333 19.6562 9.34167 19.4239 8.125 18.9594C6.90833 18.4949 5.84583 17.8607 4.9375 17.057C4.02917 16.2532 3.3125 15.3131 2.7875 14.2365C2.2625 13.16 2 12.0171 2 10.8078C2 9.58375 2.2625 8.43714 2.7875 7.36795C3.3125 6.29877 4.02917 5.36231 4.9375 4.55858C5.84583 3.75484 6.90833 3.12071 8.125 2.65616C9.34167 2.19162 10.6333 1.95935 12 1.95935C13.3833 1.95935 14.6792 2.19162 15.8875 2.65616C17.0958 3.12071 18.1542 3.75484 19.0625 4.55858C19.9708 5.36231 20.6875 6.29877 21.2125 7.36795C21.7375 8.43714 22 9.58375 22 10.8078C22 12.0171 21.7375 13.16 21.2125 14.2365C20.6875 15.3131 19.9708 16.2532 19.0625 17.057C18.1542 17.8607 17.0958 18.4949 15.8875 18.9594C14.6792 19.4239 13.3833 19.6562 12 19.6562ZM12 17.8423C12.4333 17.3114 12.8083 16.7583 13.125 16.1832C13.4417 15.6081 13.7 14.996 13.9 14.3472H10.1C10.3 14.996 10.5583 15.6081 10.875 16.1832C11.1917 16.7583 11.5667 17.3114 12 17.8423ZM9.4 17.4883C9.1 17.0017 8.8375 16.4966 8.6125 15.973C8.3875 15.4495 8.2 14.9076 8.05 14.3472H5.1C5.58333 15.0845 6.1875 15.726 6.9125 16.2717C7.6375 16.8173 8.46667 17.2229 9.4 17.4883ZM14.6 17.4883C15.5333 17.2229 16.3625 16.8173 17.0875 16.2717C17.8125 15.726 18.4167 15.0845 18.9 14.3472H15.95C15.8 14.9076 15.6125 15.4495 15.3875 15.973C15.1625 16.4966 14.9 17.0017 14.6 17.4883ZM4.25 12.5775H7.65C7.6 12.2825 7.5625 11.9913 7.5375 11.7037C7.5125 11.4161 7.5 11.1175 7.5 10.8078C7.5 10.4981 7.5125 10.1994 7.5375 9.91188C7.5625 9.6243 7.6 9.33304 7.65 9.03809H4.25C4.16667 9.33304 4.10417 9.6243 4.0625 9.91188C4.02083 10.1994 4 10.4981 4 10.8078C4 11.1175 4.02083 11.4161 4.0625 11.7037C4.10417 11.9913 4.16667 12.2825 4.25 12.5775ZM9.65 12.5775H14.35C14.4 12.2825 14.4375 11.9913 14.4625 11.7037C14.4875 11.4161 14.5 11.1175 14.5 10.8078C14.5 10.4981 14.4875 10.1994 14.4625 9.91188C14.4375 9.6243 14.4 9.33304 14.35 9.03809H9.65C9.6 9.33304 9.5625 9.6243 9.5375 9.91188C9.5125 10.1994 9.5 10.4981 9.5 10.8078C9.5 11.1175 9.5125 11.4161 9.5375 11.7037C9.5625 11.9913 9.6 12.2825 9.65 12.5775ZM16.35 12.5775H19.75C19.8333 12.2825 19.8958 11.9913 19.9375 11.7037C19.9792 11.4161 20 11.1175 20 10.8078C20 10.4981 19.9792 10.1994 19.9375 9.91188C19.8958 9.6243 19.8333 9.33304 19.75 9.03809H16.35C16.4 9.33304 16.4375 9.6243 16.4625 9.91188C16.4875 10.1994 16.5 10.4981 16.5 10.8078C16.5 11.1175 16.4875 11.4161 16.4625 11.7037C16.4375 11.9913 16.4 12.2825 16.35 12.5775ZM15.95 7.26841H18.9C18.4167 6.53104 17.8125 5.88953 17.0875 5.34387C16.3625 4.79822 15.5333 4.39267 14.6 4.12722C14.9 4.61388 15.1625 5.11898 15.3875 5.64251C15.6125 6.16604 15.8 6.70801 15.95 7.26841ZM10.1 7.26841H13.9C13.7 6.61952 13.4417 6.00751 13.125 5.43236C12.8083 4.85721 12.4333 4.30418 12 3.77328C11.5667 4.30418 11.1917 4.85721 10.875 5.43236C10.5583 6.00751 10.3 6.61952 10.1 7.26841ZM5.1 7.26841H8.05C8.2 6.70801 8.3875 6.16604 8.6125 5.64251C8.8375 5.11898 9.1 4.61388 9.4 4.12722C8.46667 4.39267 7.6375 4.79822 6.9125 5.34387C6.1875 5.88953 5.58333 6.53104 5.1 7.26841Z" fill="url(#paint0_linear_50_599)"/>
<defs>
<linearGradient id="paint0_linear_50_599" x1="12" y1="1.95935" x2="12" y2="19.6562" gradientUnits="userSpaceOnUse">
<stop stop-color="#EFF249"/>
<stop offset="1" stop-color="#D1D41E"/>
<stop offset="1" stop-color="#C7CB0A"/>
</linearGradient>
</defs>
</svg>
