<svg width="321" height="53" viewBox="0 0 321 53" fill="none" xmlns="http://www.w3.org/2000/svg">
<path d="M26.216 5.304V11.88H17.288V39H9.07998V11.88H0.151978V5.304H26.216Z" fill="black"/>
<path d="M46.7994 11.928C49.8714 11.928 52.3354 12.952 54.1914 15C56.0474 17.016 56.9754 19.8 56.9754 23.352V39H48.8154V24.456C48.8154 22.664 48.3514 21.272 47.4234 20.28C46.4954 19.288 45.2474 18.792 43.6794 18.792C42.1114 18.792 40.8634 19.288 39.9354 20.28C39.0074 21.272 38.5434 22.664 38.5434 24.456V39H30.3354V3.48H38.5434V15.816C39.3754 14.632 40.5114 13.688 41.9514 12.984C43.3914 12.28 45.0074 11.928 46.7994 11.928Z" fill="black"/>
<path d="M66.8071 9.432C65.3671 9.432 64.1831 9.016 63.2551 8.184C62.3591 7.32 61.9111 6.264 61.9111 5.016C61.9111 3.736 62.3591 2.68 63.2551 1.848C64.1831 0.984002 65.3671 0.552002 66.8071 0.552002C68.2151 0.552002 69.3671 0.984002 70.2631 1.848C71.1911 2.68 71.6551 3.736 71.6551 5.016C71.6551 6.264 71.1911 7.32 70.2631 8.184C69.3671 9.016 68.2151 9.432 66.8071 9.432ZM70.8871 12.216V39H62.6791V12.216H70.8871Z" fill="black"/>
<path d="M75.2034 25.56C75.2034 22.808 75.7153 20.392 76.7393 18.312C77.7953 16.232 79.2194 14.632 81.0114 13.512C82.8034 12.392 84.8034 11.832 87.0114 11.832C88.8994 11.832 90.5474 12.216 91.9554 12.984C93.3954 13.752 94.4993 14.76 95.2673 16.008V12.216H103.475V39H95.2673V35.208C94.4674 36.456 93.3474 37.464 91.9074 38.232C90.4994 39 88.8514 39.384 86.9634 39.384C84.7874 39.384 82.8034 38.824 81.0114 37.704C79.2194 36.552 77.7953 34.936 76.7393 32.856C75.7153 30.744 75.2034 28.312 75.2034 25.56ZM95.2673 25.608C95.2673 23.56 94.6914 21.944 93.5394 20.76C92.4194 19.576 91.0434 18.984 89.4114 18.984C87.7794 18.984 86.3874 19.576 85.2354 20.76C84.1154 21.912 83.5554 23.512 83.5554 25.56C83.5554 27.608 84.1154 29.24 85.2354 30.456C86.3874 31.64 87.7794 32.232 89.4114 32.232C91.0434 32.232 92.4194 31.64 93.5394 30.456C94.6914 29.272 95.2673 27.656 95.2673 25.608Z" fill="black"/>
<path d="M119.589 11.832C121.477 11.832 123.125 12.216 124.533 12.984C125.973 13.752 127.077 14.76 127.845 16.008V12.216H136.053V38.952C136.053 41.416 135.557 43.64 134.565 45.624C133.605 47.64 132.117 49.24 130.101 50.424C128.117 51.608 125.637 52.2 122.661 52.2C118.693 52.2 115.477 51.256 113.013 49.368C110.549 47.512 109.141 44.984 108.789 41.784H116.901C117.157 42.808 117.765 43.608 118.725 44.184C119.685 44.792 120.869 45.096 122.277 45.096C123.973 45.096 125.317 44.6 126.309 43.608C127.333 42.648 127.845 41.096 127.845 38.952V35.16C127.045 36.408 125.941 37.432 124.533 38.232C123.125 39 121.477 39.384 119.589 39.384C117.381 39.384 115.381 38.824 113.589 37.704C111.797 36.552 110.373 34.936 109.317 32.856C108.293 30.744 107.781 28.312 107.781 25.56C107.781 22.808 108.293 20.392 109.317 18.312C110.373 16.232 111.797 14.632 113.589 13.512C115.381 12.392 117.381 11.832 119.589 11.832ZM127.845 25.608C127.845 23.56 127.269 21.944 126.117 20.76C124.997 19.576 123.621 18.984 121.989 18.984C120.357 18.984 118.965 19.576 117.813 20.76C116.693 21.912 116.133 23.512 116.133 25.56C116.133 27.608 116.693 29.24 117.813 30.456C118.965 31.64 120.357 32.232 121.989 32.232C123.621 32.232 124.997 31.64 126.117 30.456C127.269 29.272 127.845 27.656 127.845 25.608Z" fill="black"/>
<path d="M154.184 39.384C151.56 39.384 149.192 38.824 147.08 37.704C145 36.584 143.352 34.984 142.136 32.904C140.952 30.824 140.36 28.392 140.36 25.608C140.36 22.856 140.968 20.44 142.184 18.36C143.4 16.248 145.064 14.632 147.176 13.512C149.288 12.392 151.656 11.832 154.28 11.832C156.904 11.832 159.272 12.392 161.384 13.512C163.496 14.632 165.16 16.248 166.376 18.36C167.592 20.44 168.2 22.856 168.2 25.608C168.2 28.36 167.576 30.792 166.328 32.904C165.112 34.984 163.432 36.584 161.288 37.704C159.176 38.824 156.808 39.384 154.184 39.384ZM154.184 32.28C155.752 32.28 157.08 31.704 158.168 30.552C159.288 29.4 159.848 27.752 159.848 25.608C159.848 23.464 159.304 21.816 158.216 20.664C157.16 19.512 155.848 18.936 154.28 18.936C152.68 18.936 151.352 19.512 150.296 20.664C149.24 21.784 148.712 23.432 148.712 25.608C148.712 27.752 149.224 29.4 150.248 30.552C151.304 31.704 152.616 32.28 154.184 32.28Z" fill="black"/>
<path d="M190.934 32.664H201.686V39H182.726V5.304H190.934V32.664Z" fill="black"/>
<path d="M217.793 39.384C215.169 39.384 212.801 38.824 210.689 37.704C208.609 36.584 206.961 34.984 205.745 32.904C204.561 30.824 203.969 28.392 203.969 25.608C203.969 22.856 204.577 20.44 205.793 18.36C207.009 16.248 208.673 14.632 210.785 13.512C212.897 12.392 215.265 11.832 217.889 11.832C220.513 11.832 222.881 12.392 224.993 13.512C227.105 14.632 228.769 16.248 229.985 18.36C231.201 20.44 231.809 22.856 231.809 25.608C231.809 28.36 231.185 30.792 229.937 32.904C228.721 34.984 227.041 36.584 224.897 37.704C222.785 38.824 220.417 39.384 217.793 39.384ZM217.793 32.28C219.361 32.28 220.689 31.704 221.777 30.552C222.897 29.4 223.457 27.752 223.457 25.608C223.457 23.464 222.913 21.816 221.825 20.664C220.769 19.512 219.457 18.936 217.889 18.936C216.289 18.936 214.961 19.512 213.905 20.664C212.849 21.784 212.321 23.432 212.321 25.608C212.321 27.752 212.833 29.4 213.857 30.552C214.913 31.704 216.225 32.28 217.793 32.28Z" fill="black"/>
<path d="M244.371 16.008C245.171 14.76 246.275 13.752 247.683 12.984C249.091 12.216 250.739 11.832 252.627 11.832C254.835 11.832 256.835 12.392 258.627 13.512C260.419 14.632 261.827 16.232 262.851 18.312C263.907 20.392 264.435 22.808 264.435 25.56C264.435 28.312 263.907 30.744 262.851 32.856C261.827 34.936 260.419 36.552 258.627 37.704C256.835 38.824 254.835 39.384 252.627 39.384C250.771 39.384 249.123 39 247.683 38.232C246.275 37.464 245.171 36.472 244.371 35.256V51.768H236.163V12.216H244.371V16.008ZM256.083 25.56C256.083 23.512 255.507 21.912 254.355 20.76C253.235 19.576 251.843 18.984 250.179 18.984C248.547 18.984 247.155 19.576 246.003 20.76C244.883 21.944 244.323 23.56 244.323 25.608C244.323 27.656 244.883 29.272 246.003 30.456C247.155 31.64 248.547 32.232 250.179 32.232C251.811 32.232 253.203 31.64 254.355 30.456C255.507 29.24 256.083 27.608 256.083 25.56Z" fill="black"/>
<path d="M293.99 25.176C293.99 25.944 293.942 26.744 293.846 27.576H275.27C275.398 29.24 275.926 30.52 276.854 31.416C277.814 32.28 278.982 32.712 280.358 32.712C282.406 32.712 283.83 31.848 284.63 30.12H293.366C292.918 31.88 292.102 33.464 290.918 34.872C289.766 36.28 288.31 37.384 286.55 38.184C284.79 38.984 282.822 39.384 280.646 39.384C278.022 39.384 275.686 38.824 273.638 37.704C271.59 36.584 269.99 34.984 268.838 32.904C267.686 30.824 267.11 28.392 267.11 25.608C267.11 22.824 267.67 20.392 268.79 18.312C269.942 16.232 271.542 14.632 273.59 13.512C275.638 12.392 277.99 11.832 280.646 11.832C283.238 11.832 285.542 12.376 287.558 13.464C289.574 14.552 291.142 16.104 292.262 18.12C293.414 20.136 293.99 22.488 293.99 25.176ZM285.59 23.016C285.59 21.608 285.11 20.488 284.15 19.656C283.19 18.824 281.99 18.408 280.55 18.408C279.174 18.408 278.006 18.808 277.046 19.608C276.118 20.408 275.542 21.544 275.318 23.016H285.59Z" fill="black"/>
<path d="M309.216 39.384C306.88 39.384 304.8 38.984 302.976 38.184C301.152 37.384 299.712 36.296 298.656 34.92C297.6 33.512 297.008 31.944 296.88 30.216H304.992C305.088 31.144 305.52 31.896 306.288 32.472C307.056 33.048 308 33.336 309.12 33.336C310.144 33.336 310.928 33.144 311.472 32.76C312.048 32.344 312.336 31.816 312.336 31.176C312.336 30.408 311.936 29.848 311.136 29.496C310.336 29.112 309.04 28.696 307.248 28.248C305.328 27.8 303.728 27.336 302.448 26.856C301.168 26.344 300.064 25.56 299.136 24.504C298.208 23.416 297.744 21.96 297.744 20.136C297.744 18.6 298.16 17.208 298.992 15.96C299.856 14.68 301.104 13.672 302.736 12.936C304.4 12.2 306.368 11.832 308.64 11.832C312 11.832 314.64 12.664 316.56 14.328C318.512 15.992 319.632 18.2 319.92 20.952H312.336C312.208 20.024 311.792 19.288 311.088 18.744C310.416 18.2 309.52 17.928 308.4 17.928C307.44 17.928 306.704 18.12 306.192 18.504C305.68 18.856 305.424 19.352 305.424 19.992C305.424 20.76 305.824 21.336 306.624 21.72C307.456 22.104 308.736 22.488 310.464 22.872C312.448 23.384 314.064 23.896 315.312 24.408C316.56 24.888 317.648 25.688 318.576 26.808C319.536 27.896 320.032 29.368 320.064 31.224C320.064 32.792 319.616 34.2 318.72 35.448C317.856 36.664 316.592 37.624 314.928 38.328C313.296 39.032 311.392 39.384 309.216 39.384Z" fill="black"/>
</svg>
